<?xml version="1.0" encoding="utf-8"?>
<!-- Svg Vector Icons : http://www.onlinewebfonts.com/icon -->
<!DOCTYPE svg PUBLIC "-//W3C//DTD SVG 1.1//EN" "http://www.w3.org/Graphics/SVG/1.1/DTD/svg11.dtd">
<svg version="1.1" xmlns="http://www.w3.org/2000/svg" xmlns:xlink="http://www.w3.org/1999/xlink" x="0px" y="0px" viewBox="0 0 1000 1000" enable-background="new 0 0 1000 1000" xml:space="preserve">
<metadata> Svg Vector Icons : http://www.onlinewebfonts.com/icon </metadata>
<g><path d="M826.4,466.4c-31.2-28.9-467.2-346.6-600.9-442.4C192.2,0.1,157.2,9.1,156.6,34c-1.5,68.4-3.6,901.4,1.6,936.9c3.5,24.2,47.7,24.7,74.7,5.2c44.5-32,569.1-416.8,590.8-431.7C845.4,529.6,857.2,494.9,826.4,466.4z M230.3,882.9c-7.5,4.5,0.2-742.1,0.2-742.1s-0.3-11.8,2.9-11.8c11,0,526.4,368.4,524.6,375.3C756.1,511.2,237.8,878.4,230.3,882.9z"/></g>
</svg>