<?xml version="1.0" encoding="UTF-8"?>
<svg width="1024px" height="1024px" viewBox="0 0 1024 1024" version="1.1" xmlns="http://www.w3.org/2000/svg" xmlns:xlink="http://www.w3.org/1999/xlink">
    <title>placeholder</title>
    <g id="placeholder" stroke="none" stroke-width="1" fill="none" fill-rule="evenodd">
        <rect fill="#E2E2E2" x="0" y="0" width="1024" height="1024"></rect>
        <g id="logo" transform="translate(78, 310)">
            <path d="M470,122.052811 L556.013234,122.052811 C561.21966,96.734681 587.532829,76.954856 611.073293,95.4913438 C628.842359,109.506737 623.861921,128.269352 627.936957,147.766771 C632.63346,170.82363 644.46019,193.20341 660.983422,209.87576 C718.023777,267.349361 820.108267,252.374049 856.550354,178.9616 C865.152402,161.612171 869,142.623719 869,123.352571 L809.922852,123.352571 C802.90562,123.352571 791.078891,121.148592 784.741074,124.200367 C780.214062,126.460914 778.742239,136.802864 775.913038,140.98484 C767.538427,154.20915 750.787757,161.104362 736.018832,154.718406 C709.931652,143.471514 714.063185,116.853479 709.649167,93.626338 C706.310042,76.1636283 697.369012,58.3053771 685.882714,44.9116525 C644.006764,-4.48135636 565.633678,-16.7447928 514.364721,26.3751647 C497.389511,40.6165403 484.996362,58.1923859 476.84774,78.7067259 C471.245834,92.7786871 470,107.076631 470,122.052811 Z" id="Path" fill-opacity="0.218203671" fill="#000000"></path>
            <path d="M470.109934,123 C470.109934,134.708594 468.64118,153.488101 476.440774,163.159348 C480.511322,168.1376 488.876713,170.060555 494.246711,173.283821 C505.381753,179.733249 516.178186,187.763902 524.543576,197.606014 C531.496646,205.694587 537.488876,214.00905 542.518818,223.342911 C545.1756,228.376187 547.040846,236.069454 552.24154,238.897414 C575.981826,251.962792 604.697066,237.313293 621.089237,265.424924 C623.633149,269.780532 624.311815,273.910251 624.48112,279 L713,279 C712.943565,268.026994 712.603509,249.360721 706.103365,240.254198 C701.921393,234.372389 690.841339,231.770318 684.850556,228.150298 C673.206153,221.192618 663.201256,211.860206 654.213635,201.679261 C647.713491,194.382748 642.512797,186.010364 638.216509,177.244123 C635.841901,172.606153 634.260277,166.158173 629.511062,163.328765 C624.48112,160.331388 617.980976,160.218443 612.38379,159.256966 C592.826923,156.203117 571.912724,158.634322 561.116292,137.989201 C558.741684,133.294469 557.158613,128.147235 556.028468,123 L470.109934,123 Z" id="Path" fill-opacity="0.352655157" fill="#000000"></path>
            <path d="M0,281.160435 L87.467189,281.160435 C88.7709237,253.069027 120.402018,237.040614 142.623119,254.71174 C159.968711,268.587083 155.320601,287.786382 158.89194,306.929136 C162.917497,328.564232 173.347084,349.349698 188.482828,365.265021 C238.932891,418.559677 324.247409,416.519697 372.487334,361.243057 C381.44398,351.048957 388.019249,338.53215 392.893742,325.902254 C398.279049,312.253092 401,297.245393 401,282.462426 L343.179424,282.462426 C335.016571,282.462426 324.189362,280.593532 316.42413,282.916238 C310.982228,284.558951 309.790814,295.60268 306.843479,300.133553 C297.830238,313.95235 279.974993,319.615578 265.122228,312.479273 C240.180901,300.472824 245.055394,272.551053 240.237497,249.896692 C236.155344,230.245031 225.158348,211.951906 212.234193,197.055848 C171.476521,150.047868 93.2492465,145.23427 45.7459374,183.917044 C16.1556295,208.043032 0,243.044563 0,281.160435 Z" id="Path" fill-opacity="0.217575393" fill="#000000"></path>
            <path d="M313,281.007626 L400.466609,281.007626 C405.399149,254.848353 431.871464,235.767028 455.622829,254.565699 C472.515945,267.927265 468.831414,291.765875 472.572541,310.847201 C476.766433,331.796942 488.670413,352.237905 503.296796,367.411356 C561.285708,427.600732 667.857021,411.519889 702.775169,333.948012 C710.031039,317.812087 713.830213,299.97589 714,282.309284 L653.458473,282.309284 C646.428987,282.309284 634.694794,280.101683 628.289312,283.158696 C623.471414,285.480808 623.13184,294.427172 620.23965,298.672782 C611.169813,311.809674 594.674318,319.680503 579.483429,312.828678 C554.370864,301.561651 558.905782,277.383856 554.767034,255.244069 C551.366933,236.503378 541.446708,216.685703 529.258298,202.303683 C482.719149,147.494881 397.57587,142.115032 346.67159,194.1502 C336.864556,204.172099 328.588511,216.629172 322.805582,229.48196 C315.379925,246.01505 313,263.001836 313,281.007626 Z" id="Path" fill-opacity="0.143083479" fill="#060606"></path>
        </g>
    </g>
</svg>