<svg width="188" height="28" viewBox="0 0 188 28" fill="none" xmlns="http://www.w3.org/2000/svg">
<path d="M0 13.5624C0 7.7758 3.76275 3.98103 9.48746 3.98103C12.1775 3.98103 14.4285 4.59925 16.3349 5.62379L14.0339 15.0162H14.0061C10.0321 7.0203 7.94235 5.21729 6.08598 5.21729C4.93549 5.21729 4.04622 6.13313 4.04622 8.28522C4.04622 15.1479 9.48191 20.7742 15.051 20.7742C15.7846 20.7742 16.6961 20.6654 17.1964 20.425L17.2241 20.4537C15.968 22.766 13.1224 24.4373 9.95991 24.4373C3.94618 24.4373 0 19.9156 0 13.5624Z" fill="#030303"/>
<path d="M30.002 21.4725C28.9015 23.1953 27.1507 24.1626 24.7219 24.1626C21.0369 24.1626 18.0023 21.5241 18.0023 17.3515C18.0023 13.4194 20.5645 10.1626 24.7441 10.1626C27.2007 10.1626 28.9015 11.645 28.9015 13.6082C28.9015 15.8405 27.2285 17.8094 24.0938 19.017C25.5834 20.5224 27.4675 21.5183 29.2183 21.5183C29.4795 21.5183 29.7407 21.4896 29.9741 21.4381L30.002 21.4725ZM21.2481 12.6981C21.2481 14.9303 22.3708 17.1912 23.9382 18.8625C24.6718 17.8952 24.9553 16.8192 24.9553 15.4455C24.9553 13.1045 23.438 11.1127 22.3153 11.1127C21.6428 11.1127 21.2481 11.7022 21.2481 12.6981Z" fill="#030303"/>
<path d="M30.7634 23.4643H32.0695V7.44959L30.58 6.13313L37.2995 3.71204V23.4701H38.6057V23.8993H30.7634V23.4643Z" fill="#030303"/>
<path d="M39.5728 23.4643H40.8789V7.44959L39.3893 6.13313L46.1089 3.71204V23.4701H47.415V23.8993H39.5728V23.4643Z" fill="#030303"/>
<path d="M64.089 23.4643V23.8936H57.5528V21.8216C55.8298 23.1151 54.3403 24.1912 52.873 24.1912C50.522 24.1912 49.4993 22.7889 49.4993 19.5894V13.8027L48.0098 12.4864L54.7294 10.0653V18.5192C54.7294 20.78 54.9128 21.6672 56.2189 21.6672C56.6357 21.6672 57.1081 21.5583 57.5528 21.398V13.6711L56.0633 12.3548L62.7829 9.9337V23.4758H64.089V23.4643Z" fill="#030303"/>
<path d="M65.0505 23.4643H66.3566V7.44959L64.8671 6.13313L71.5867 3.71204V23.4701H72.8928V23.8993H65.0505V23.4643Z" fill="#030303"/>
<path d="M74.0155 17.0883C74.0155 13.2362 76.9446 10.1683 81.202 10.1683C85.515 10.1683 88.6274 12.8585 88.6274 17.0883C88.6274 21.0204 86.1986 24.1683 81.2298 24.1683C77.467 24.1683 74.0155 21.421 74.0155 17.0883ZM85.2315 21.8216C85.2315 19.5607 80.8407 11.1356 78.5397 11.1356C77.8838 11.1356 77.4948 11.6221 77.4948 12.452C77.4948 15.0906 82.019 23.1896 84.1588 23.1896C84.8647 23.1953 85.2315 22.7374 85.2315 21.8216Z" fill="#030303"/>
<path d="M90.0391 23.4643H91.3453V13.6369L89.8557 12.3204L96.5753 9.89933V23.4643H97.8814V23.8936H90.0391V23.4643ZM91.0618 6.42504C91.0618 4.65071 92.1067 3.43732 93.9631 3.43732C95.8194 3.43732 96.8643 4.65071 96.8643 6.42504C96.8643 8.22799 95.8194 9.44141 93.9631 9.44141C92.1067 9.44141 91.0618 8.23371 91.0618 6.42504Z" fill="#030303"/>
<path d="M115 23.4643V23.8936H108.464V21.7644C107.08 23.2182 105.457 24.1626 103.917 24.1626C101.25 24.1626 99.2654 21.9304 99.2654 17.7808C99.2654 13.3106 101.75 10.1626 105.329 10.1626C106.713 10.1626 107.658 10.5919 108.464 11.1585V7.44386L106.974 6.1274L113.694 3.70631V23.4643H115ZM108.469 21.3923V11.6221C108.103 11.3531 107.636 11.2158 107.191 11.2158C105.829 11.2158 104.862 12.9099 104.862 16.2468C104.862 19.8526 105.618 21.6557 107.369 21.6557C107.763 21.6614 108.103 21.5526 108.469 21.3923Z" fill="#030303"/>
<path fill-rule="evenodd" clip-rule="evenodd" d="M160.453 8.43634H166.391C166.75 6.68634 168.566 5.31915 170.191 6.6004C171.418 7.56915 171.074 8.86603 171.355 10.2137C171.68 11.8074 172.496 13.3543 173.637 14.5067C177.574 18.4793 184.621 17.4442 187.137 12.3699C187.73 11.1707 187.996 9.85821 187.996 8.52618H183.918C183.434 8.52618 182.617 8.37384 182.18 8.58478C181.867 8.74103 181.766 9.45587 181.57 9.74493C180.992 10.659 179.836 11.1356 178.816 10.6942C177.016 9.91681 177.301 8.07696 176.996 6.47149C176.766 5.26446 176.148 4.03009 175.355 3.10431C172.465 -0.309756 167.055 -1.15741 163.516 1.82306C162.344 2.80743 161.488 4.02228 160.926 5.44024C160.539 6.4129 160.453 7.40118 160.453 8.43634Z" fill="#004A00"/>
<path fill-rule="evenodd" clip-rule="evenodd" d="M160.453 8.52618C160.453 9.33478 160.352 10.6317 160.891 11.2996C161.172 11.6434 161.75 11.7762 162.121 11.9988C162.891 12.4442 163.637 12.9988 164.215 13.6785C164.695 14.2371 165.109 14.8113 165.457 15.4559C165.641 15.8035 165.77 16.3348 166.129 16.5301C167.77 17.4324 169.754 16.4207 170.887 18.3621C171.063 18.6629 171.109 18.9481 171.121 19.2996H177.238C177.234 18.5418 177.211 17.2527 176.762 16.6238C176.473 16.2176 175.707 16.0379 175.293 15.7879C174.488 15.3074 173.797 14.6629 173.176 13.9598C172.727 13.4559 172.367 12.8777 172.07 12.2723C171.906 11.952 171.797 11.5067 171.469 11.3113C171.121 11.1043 170.672 11.0965 170.285 11.0301C168.934 10.8192 167.488 10.9871 166.742 9.56134C166.578 9.23712 166.469 8.88165 166.391 8.52618H160.453Z" fill="#5480FF"/>
<path fill-rule="evenodd" clip-rule="evenodd" d="M128 19.3895H134.027C134.117 17.452 136.297 16.3465 137.828 17.5653C139.023 18.5223 138.703 19.8465 138.949 21.1668C139.227 22.659 139.945 24.0926 140.988 25.1903C144.465 28.8661 150.344 28.7254 153.668 24.9129C154.285 24.2098 154.738 23.3465 155.074 22.4754C155.445 21.534 155.633 20.4989 155.633 19.4793H151.648C151.086 19.4793 150.34 19.3504 149.805 19.5106C149.43 19.6239 149.348 20.3856 149.145 20.6981C148.523 21.6512 147.293 22.0418 146.27 21.5496C144.551 20.7215 144.887 18.7957 144.555 17.2332C144.273 15.8778 143.516 14.6161 142.625 13.5887C139.816 10.3465 134.426 10.0145 131.152 12.6825C129.113 14.3465 128 16.7606 128 19.3895Z" fill="#FFC500"/>
<path fill-rule="evenodd" clip-rule="evenodd" d="M149.605 19.3895H155.633C155.973 17.5848 157.797 16.2684 159.434 17.5653C160.598 18.4871 160.344 20.1317 160.602 21.4481C160.891 22.8934 161.711 24.3036 162.719 25.3504C166.715 29.5028 174.059 28.3934 176.465 23.0418C176.965 21.9286 177.227 20.6981 177.238 19.4793H173.066C172.582 19.4793 171.773 19.327 171.332 19.5379C171 19.6981 170.977 20.3153 170.777 20.6082C170.152 21.5145 169.016 22.0575 167.969 21.5848C166.238 20.8075 166.551 19.1395 166.266 17.6121C166.031 16.3192 165.348 14.952 164.508 13.9598C161.301 10.1786 155.434 9.80745 151.926 13.3973C151.25 14.0887 150.68 14.9481 150.281 15.8348C149.77 16.9754 149.605 18.1473 149.605 19.3895Z" fill="#FFB2C3"/>
</svg>
