<svg width="60" height="28" viewBox="0 0 60 28" fill="none" xmlns="http://www.w3.org/2000/svg">
  <path fill-rule="evenodd" clip-rule="evenodd" d="M32.4531 8.43634H38.3906C38.75 6.68634 40.5664 5.31915 42.1914 6.6004C43.418 7.56915 43.0742 8.86603 43.3555 10.2137C43.6797 11.8074 44.4961 13.3543 45.6367 14.5067C49.5742 18.4793 56.6211 17.4442 59.1367 12.3699C59.7305 11.1707 59.9961 9.85821 59.9961 8.52618H55.918C55.4336 8.52618 54.6172 8.37384 54.1797 8.58478C53.8672 8.74103 53.7656 9.45587 53.5703 9.74493C52.9922 10.659 51.8359 11.1356 50.8164 10.6942C49.0156 9.91681 49.3008 8.07696 48.9961 6.47149C48.7656 5.26446 48.1484 4.03009 47.3555 3.10431C44.4648 -0.309756 39.0547 -1.15741 35.5156 1.82306C34.3438 2.80743 33.4883 4.02228 32.9258 5.44024C32.5391 6.4129 32.4531 7.40118 32.4531 8.43634Z" fill="#004A00"/>
  <path fill-rule="evenodd" clip-rule="evenodd" d="M32.4531 8.52618C32.4531 9.33478 32.3516 10.6317 32.8906 11.2996C33.1719 11.6434 33.75 11.7762 34.1211 11.9988C34.8906 12.4442 35.6367 12.9988 36.2148 13.6785C36.6953 14.2371 37.1094 14.8113 37.457 15.4559C37.6406 15.8035 37.7695 16.3348 38.1289 16.5301C39.7695 17.4324 41.7539 16.4207 42.8867 18.3621C43.0625 18.6629 43.1094 18.9481 43.1211 19.2996H49.2383C49.2344 18.5418 49.2109 17.2527 48.7617 16.6238C48.4727 16.2176 47.707 16.0379 47.293 15.7879C46.4883 15.3074 45.7969 14.6629 45.1758 13.9598C44.7266 13.4559 44.3672 12.8777 44.0703 12.2723C43.9062 11.952 43.7969 11.5067 43.4687 11.3113C43.1211 11.1043 42.6719 11.0965 42.2851 11.0301C40.9336 10.8192 39.4883 10.9871 38.7422 9.56134C38.5781 9.23712 38.4687 8.88165 38.3906 8.52618H32.4531Z" fill="#5480FF"/>
  <path fill-rule="evenodd" clip-rule="evenodd" d="M0 19.3895H6.02734C6.11718 17.452 8.29687 16.3465 9.82812 17.5653C11.0234 18.5223 10.7031 19.8465 10.9492 21.1668C11.2266 22.659 11.9453 24.0926 12.9883 25.1903C16.4648 28.8661 22.3438 28.7254 25.668 24.9129C26.2852 24.2098 26.7383 23.3465 27.0742 22.4754C27.4453 21.534 27.6328 20.4989 27.6328 19.4793H23.6484C23.0859 19.4793 22.3398 19.3504 21.8047 19.5106C21.4297 19.6239 21.3476 20.3856 21.1445 20.6981C20.5234 21.6512 19.293 22.0418 18.2695 21.5496C16.5508 20.7215 16.8867 18.7957 16.5547 17.2332C16.2734 15.8778 15.5156 14.6161 14.625 13.5887C11.8164 10.3465 6.42578 10.0145 3.15234 12.6825C1.11328 14.3465 0 16.7606 0 19.3895Z" fill="#FFC500"/>
  <path fill-rule="evenodd" clip-rule="evenodd" d="M21.6055 19.3895H27.6328C27.9727 17.5848 29.7969 16.2684 31.4336 17.5653C32.5977 18.4871 32.3438 20.1317 32.6016 21.4481C32.8906 22.8934 33.7109 24.3036 34.7188 25.3504C38.7148 29.5028 46.0586 28.3934 48.4648 23.0418C48.9648 21.9286 49.2266 20.6981 49.2383 19.4793H45.0664C44.582 19.4793 43.7734 19.327 43.332 19.5379C43 19.6981 42.9766 20.3153 42.7773 20.6082C42.1523 21.5145 41.0156 22.0575 39.9688 21.5848C38.2383 20.8075 38.5508 19.1395 38.2656 17.6121C38.0313 16.3192 37.3477 14.952 36.5078 13.9598C33.3008 10.1786 27.4336 9.80745 23.9258 13.3973C23.25 14.0887 22.6797 14.9481 22.2812 15.8348C21.7695 16.9754 21.6055 18.1473 21.6055 19.3895Z" fill="#FFB2C3"/>
  </svg>
